<svg xmlns="http://www.w3.org/2000/svg" xmlns:xlink="http://www.w3.org/1999/xlink" width="300" zoomAndPan="magnify" viewBox="0 0 224.87999 74.999997" height="100" preserveAspectRatio="xMidYMid meet" version="1.0"><defs><g/><clipPath id="343debd253"><path d="M 0 0.0195312 L 224.761719 0.0195312 L 224.761719 74.980469 L 0 74.980469 Z M 0 0.0195312 " clip-rule="nonzero"/></clipPath></defs><g clip-path="url(#343debd253)"><path fill="#ffffff" d="M 0 0.0195312 L 224.878906 0.0195312 L 224.878906 82.476562 L 0 82.476562 Z M 0 0.0195312 " fill-opacity="1" fill-rule="nonzero"/><path fill="#ffffff" d="M 0 0.0195312 L 224.878906 0.0195312 L 224.878906 74.980469 L 0 74.980469 Z M 0 0.0195312 " fill-opacity="1" fill-rule="nonzero"/><path fill="#ffffff" d="M 0 0.0195312 L 224.878906 0.0195312 L 224.878906 74.980469 L 0 74.980469 Z M 0 0.0195312 " fill-opacity="1" fill-rule="nonzero"/></g><g fill="#e42b52" fill-opacity="1"><g transform="translate(17.615598, 50.992795)"><g><path d="M 19.507812 0 L 22.625 0 L 18.230469 -27.222656 L 14.671875 -26.785156 L 0.238281 0 L 3.597656 0 L 7.753906 -7.875 L 18.390625 -7.875 Z M 9.113281 -10.472656 L 13.792969 -19.347656 L 16.03125 -23.707031 L 16.109375 -23.707031 L 16.710938 -19.347656 L 17.988281 -10.472656 Z M 9.113281 -10.472656 "/></g></g></g><g fill="#e42b52" fill-opacity="1"><g transform="translate(41.640393, 50.992795)"><g><path d="M 6.15625 8.273438 C 10.714844 8.273438 13.710938 6.195312 14.949219 2.238281 C 19.429688 0.601562 21.746094 -1.597656 23.625 -4.835938 L 22.148438 -6.316406 C 20.628906 -3.4375 18.429688 -1.398438 15.472656 -0.238281 L 18.269531 -17.988281 L 15.3125 -17.589844 C 13.75 -17.828125 12.472656 -17.988281 11.234375 -17.988281 C 4.957031 -17.988281 1.199219 -13.273438 1.199219 -6.355469 C 1.199219 -1.917969 3.039062 0.398438 6.957031 0.398438 C 9.234375 0.398438 11.035156 -0.359375 12.914062 -2.398438 C 12.832031 -1.839844 12.710938 -1.277344 12.632812 -0.71875 C 11.914062 3.917969 10.035156 5.875 6.316406 5.957031 C 4.675781 5.996094 3.117188 5.636719 1.640625 4.917969 L 1.238281 7.355469 C 2.480469 7.957031 4.277344 8.273438 6.15625 8.273438 Z M 7.59375 -1.957031 C 5.117188 -1.957031 4.15625 -3.359375 4.15625 -6.355469 C 4.15625 -11.871094 6.796875 -15.628906 11.394531 -15.628906 C 12.792969 -15.628906 13.671875 -15.511719 14.949219 -15.269531 L 13.273438 -5.078125 C 11.234375 -2.878906 9.472656 -1.957031 7.59375 -1.957031 Z M 7.59375 -1.957031 "/></g></g></g><g fill="#e42b52" fill-opacity="1"><g transform="translate(62.547158, 50.992795)"><g><path d="M 19.148438 -6.316406 C 17.828125 -3.636719 15.191406 -2.160156 12.832031 -2.160156 C 10.472656 -2.160156 9.355469 -3.476562 9.355469 -5.835938 C 9.355469 -8.113281 10.273438 -11.152344 12.953125 -14.992188 L 13.632812 -17.589844 C 8.636719 -17.589844 4.398438 -18.308594 1.558594 -20.226562 L 1.199219 -17.75 C 1.480469 -17.550781 1.839844 -17.390625 2.199219 -17.191406 C 3.15625 -13.351562 2.71875 -9.234375 1.238281 -6.316406 L 2.71875 -4.835938 C 4.355469 -7.796875 5.238281 -11.914062 4.515625 -16.390625 C 6.394531 -15.789062 8.316406 -15.429688 9.992188 -15.429688 C 7.675781 -11.472656 6.394531 -8.15625 6.394531 -5.277344 C 6.394531 -1.679688 8.59375 0.398438 12.234375 0.398438 C 15.628906 0.398438 18.667969 -1.320312 20.628906 -4.835938 Z M 19.148438 -6.316406 "/></g></g></g><g fill="#e42b52" fill-opacity="1"><g transform="translate(80.455821, 50.992795)"><g><path d="M 5.238281 -20.90625 C 6.597656 -20.90625 7.796875 -22.027344 7.796875 -23.507812 C 7.796875 -24.503906 6.914062 -25.386719 5.835938 -25.386719 C 4.398438 -25.386719 3.238281 -24.265625 3.238281 -22.785156 C 3.238281 -21.746094 4.15625 -20.90625 5.238281 -20.90625 Z M 11.234375 -6.316406 C 9.992188 -3.996094 8.113281 -2.199219 5.796875 -2.199219 C 4.078125 -2.199219 3.757812 -3.519531 4.078125 -5.558594 L 6.035156 -17.988281 L 3.078125 -17.589844 L 1.078125 -5.277344 C 0.480469 -1.558594 2.199219 0.398438 5.078125 0.398438 C 8.355469 0.398438 11.113281 -1.957031 12.710938 -4.835938 Z M 11.234375 -6.316406 "/></g></g></g><g fill="#e12c2c" fill-opacity="1"><g transform="translate(96.648417, 47.244795)"><g><path d="M 10.515625 2.59375 C 7.554688 2.59375 5.269531 1.804688 3.65625 0.234375 C 2.039062 -1.335938 1.234375 -3.375 1.234375 -5.875 C 1.234375 -8.164062 1.800781 -10.40625 2.9375 -12.59375 C 4.070312 -14.78125 5.503906 -16.789062 7.234375 -18.625 C 8.648438 -20.113281 10.269531 -21.40625 12.09375 -22.5 C 13.914062 -23.59375 15.832031 -24.445312 17.84375 -25.0625 C 19.851562 -25.675781 21.816406 -25.984375 23.734375 -25.984375 C 25.253906 -25.984375 26.628906 -25.773438 27.859375 -25.359375 C 29.085938 -24.941406 30.0625 -24.296875 30.78125 -23.421875 C 31.5 -22.546875 31.859375 -21.398438 31.859375 -19.984375 C 31.859375 -18.734375 31.554688 -17.566406 30.953125 -16.484375 C 30.359375 -15.410156 29.5625 -14.472656 28.5625 -13.671875 C 27.5625 -12.867188 26.460938 -12.238281 25.265625 -11.78125 C 24.066406 -11.332031 22.851562 -11.109375 21.625 -11.109375 C 20.019531 -11.109375 18.671875 -11.472656 17.578125 -12.203125 C 16.492188 -12.941406 15.953125 -13.867188 15.953125 -14.984375 C 15.953125 -16.421875 16.867188 -17.832031 18.703125 -19.21875 C 19.023438 -19.457031 19.28125 -19.578125 19.46875 -19.578125 C 19.601562 -19.578125 19.671875 -19.523438 19.671875 -19.421875 C 19.671875 -19.160156 19.457031 -18.945312 19.03125 -18.78125 C 17.53125 -17.582031 16.78125 -16.367188 16.78125 -15.140625 C 16.78125 -14.265625 17.179688 -13.523438 17.984375 -12.921875 C 18.785156 -12.328125 19.785156 -12.03125 20.984375 -12.03125 C 22.046875 -12.03125 23.113281 -12.253906 24.1875 -12.703125 C 25.269531 -13.160156 26.265625 -13.773438 27.171875 -14.546875 C 28.078125 -15.316406 28.800781 -16.1875 29.34375 -17.15625 C 29.894531 -18.132812 30.171875 -19.15625 30.171875 -20.21875 C 30.171875 -21.957031 29.582031 -23.222656 28.40625 -24.015625 C 27.238281 -24.816406 25.75 -25.21875 23.9375 -25.21875 C 21.882812 -25.21875 19.851562 -24.832031 17.84375 -24.0625 C 15.832031 -23.289062 13.945312 -22.222656 12.1875 -20.859375 C 10.425781 -19.503906 8.851562 -17.945312 7.46875 -16.1875 C 4.695312 -12.695312 3.3125 -9.421875 3.3125 -6.359375 C 3.3125 -4.734375 3.6875 -3.351562 4.4375 -2.21875 C 5.1875 -1.082031 6.21875 -0.222656 7.53125 0.359375 C 8.851562 0.941406 10.367188 1.234375 12.078125 1.234375 C 14.609375 1.234375 17.054688 0.679688 19.421875 -0.421875 C 21.796875 -1.523438 23.820312 -3.007812 25.5 -4.875 C 25.945312 -5.351562 26.28125 -5.59375 26.5 -5.59375 C 26.65625 -5.59375 26.734375 -5.472656 26.734375 -5.234375 C 26.734375 -4.910156 26.585938 -4.601562 26.296875 -4.3125 C 25.390625 -3.351562 24.3125 -2.460938 23.0625 -1.640625 C 21.8125 -0.816406 20.472656 -0.0859375 19.046875 0.546875 C 17.617188 1.191406 16.171875 1.691406 14.703125 2.046875 C 13.242188 2.410156 11.847656 2.59375 10.515625 2.59375 Z M 10.515625 2.59375 "/></g></g></g><g fill="#e12c2c" fill-opacity="1"><g transform="translate(125.670045, 47.244795)"><g><path d="M 1.875 0.4375 C 0.675781 0.4375 0.078125 -0.320312 0.078125 -1.84375 C 0.078125 -2.425781 0.253906 -3.125 0.609375 -3.9375 C 0.972656 -4.75 1.488281 -5.609375 2.15625 -6.515625 C 2.15625 -6.515625 1.914062 -6.285156 1.4375 -5.828125 C 0.957031 -5.378906 0.410156 -4.804688 -0.203125 -4.109375 C -0.304688 -4.003906 -0.4375 -3.953125 -0.59375 -3.953125 C -0.707031 -3.953125 -0.765625 -4.019531 -0.765625 -4.15625 C -0.765625 -4.289062 -0.644531 -4.519531 -0.40625 -4.84375 L 5.109375 -11.3125 C 5.804688 -12.113281 6.566406 -12.515625 7.390625 -12.515625 C 8.003906 -12.515625 8.3125 -12.273438 8.3125 -11.796875 C 8.3125 -11.609375 8.234375 -11.429688 8.078125 -11.265625 C 7.566406 -10.785156 6.941406 -10.101562 6.203125 -9.21875 C 5.472656 -8.34375 4.757812 -7.398438 4.0625 -6.390625 C 3.375 -5.378906 2.796875 -4.414062 2.328125 -3.5 C 1.867188 -2.582031 1.640625 -1.84375 1.640625 -1.28125 C 1.640625 -0.800781 1.800781 -0.5625 2.125 -0.5625 C 2.300781 -0.5625 2.585938 -0.632812 2.984375 -0.78125 C 3.390625 -0.925781 3.925781 -1.226562 4.59375 -1.6875 C 5.257812 -2.15625 6.0625 -2.882812 7 -3.875 C 7.15625 -4.03125 7.578125 -4.507812 8.265625 -5.3125 C 8.960938 -6.113281 9.898438 -7.257812 11.078125 -8.75 C 13.148438 -11.332031 14.503906 -12.625 15.140625 -12.625 C 16.023438 -12.625 16.507812 -12.265625 16.59375 -11.546875 C 16.644531 -11.304688 16.082031 -10.519531 14.90625 -9.1875 C 13.382812 -7.351562 12.347656 -6.035156 11.796875 -5.234375 C 10.753906 -3.710938 10.234375 -2.523438 10.234375 -1.671875 C 10.234375 -1.085938 10.429688 -0.796875 10.828125 -0.796875 C 11.234375 -0.796875 11.75 -0.988281 12.375 -1.375 C 13 -1.757812 13.65625 -2.25 14.34375 -2.84375 C 15.039062 -3.445312 15.710938 -4.078125 16.359375 -4.734375 C 17.015625 -5.390625 17.582031 -6 18.0625 -6.5625 C 18.226562 -6.738281 18.390625 -6.828125 18.546875 -6.828125 C 18.703125 -6.828125 18.78125 -6.75 18.78125 -6.59375 C 18.78125 -6.539062 18.765625 -6.457031 18.734375 -6.34375 C 18.710938 -6.238281 18.632812 -6.125 18.5 -6 C 18.070312 -5.519531 17.523438 -4.925781 16.859375 -4.21875 C 16.203125 -3.507812 15.484375 -2.804688 14.703125 -2.109375 C 13.929688 -1.421875 13.1875 -0.847656 12.46875 -0.390625 C 11.75 0.0546875 11.132812 0.28125 10.625 0.28125 C 10.019531 0.28125 9.488281 0.113281 9.03125 -0.21875 C 8.582031 -0.550781 8.359375 -1.007812 8.359375 -1.59375 C 8.359375 -2.1875 8.445312 -2.78125 8.625 -3.375 C 8.8125 -3.976562 8.960938 -4.492188 9.078125 -4.921875 C 7.816406 -3.453125 6.710938 -2.332031 5.765625 -1.5625 C 4.828125 -0.789062 4.035156 -0.265625 3.390625 0.015625 C 2.753906 0.296875 2.25 0.4375 1.875 0.4375 Z M 1.875 0.4375 "/></g></g></g><g fill="#e12c2c" fill-opacity="1"><g transform="translate(142.659287, 47.244795)"><g><path d="M 3.03125 0.078125 C 2.257812 0.078125 1.539062 -0.113281 0.875 -0.5 C 0.207031 -0.882812 -0.125 -1.53125 -0.125 -2.4375 C -0.125 -3.6875 0.320312 -5.175781 1.21875 -6.90625 C 2.113281 -8.644531 3.132812 -10.445312 4.28125 -12.3125 C 7.394531 -17.375 9.601562 -19.90625 10.90625 -19.90625 C 11.175781 -19.90625 11.453125 -19.804688 11.734375 -19.609375 C 12.015625 -19.410156 12.164062 -19.1875 12.1875 -18.9375 L 9.390625 -15.1875 C 8.296875 -13.71875 7.304688 -12.363281 6.421875 -11.125 C 5.546875 -9.882812 4.789062 -8.773438 4.15625 -7.796875 C 3.832031 -7.285156 3.472656 -6.707031 3.078125 -6.0625 C 2.679688 -5.425781 2.328125 -4.769531 2.015625 -4.09375 C 1.710938 -3.414062 1.5625 -2.726562 1.5625 -2.03125 C 1.5625 -1.71875 1.65625 -1.429688 1.84375 -1.171875 C 2.03125 -0.921875 2.363281 -0.796875 2.84375 -0.796875 C 3.6875 -0.796875 4.800781 -1.253906 6.1875 -2.171875 C 7.582031 -3.097656 8.957031 -4.375 10.3125 -6 C 10.445312 -6.15625 10.59375 -6.300781 10.75 -6.4375 C 10.90625 -6.570312 11.039062 -6.640625 11.15625 -6.640625 C 11.28125 -6.640625 11.34375 -6.554688 11.34375 -6.390625 C 11.34375 -6.316406 11.253906 -6.164062 11.078125 -5.9375 C 10.910156 -5.707031 10.773438 -5.523438 10.671875 -5.390625 L 9.71875 -4.3125 C 9.175781 -3.726562 8.539062 -3.085938 7.8125 -2.390625 C 7.082031 -1.703125 6.3125 -1.117188 5.5 -0.640625 C 4.6875 -0.160156 3.863281 0.078125 3.03125 0.078125 Z M 3.03125 0.078125 "/></g></g></g><g fill="#e12c2c" fill-opacity="1"><g transform="translate(152.373135, 47.244795)"><g><path d="M 2.484375 0.234375 C 1.628906 0.234375 0.953125 0.03125 0.453125 -0.375 C -0.0351562 -0.789062 -0.28125 -1.53125 -0.28125 -2.59375 C -0.28125 -3.207031 -0.09375 -3.988281 0.28125 -4.9375 C 0.65625 -5.882812 1.117188 -6.898438 1.671875 -7.984375 C 2.234375 -9.078125 2.796875 -10.160156 3.359375 -11.234375 C 3.015625 -11.148438 2.707031 -11.109375 2.4375 -11.109375 C 1.632812 -11.109375 1.234375 -11.414062 1.234375 -12.03125 C 1.234375 -12.320312 1.347656 -12.546875 1.578125 -12.703125 C 1.804688 -12.867188 2.015625 -12.960938 2.203125 -12.984375 C 2.203125 -12.984375 2.234375 -12.984375 2.296875 -12.984375 C 2.359375 -12.984375 2.445312 -13 2.5625 -13.03125 L 4.875 -13.03125 C 5.351562 -13.644531 5.847656 -14.296875 6.359375 -14.984375 C 7.078125 -15.890625 7.648438 -16.425781 8.078125 -16.59375 L 8.1875 -16.59375 C 8.375 -16.59375 8.644531 -16.5 9 -16.3125 C 9.414062 -16.070312 9.625 -15.832031 9.625 -15.59375 C 9.625 -15.238281 8.988281 -14.34375 7.71875 -12.90625 C 7.957031 -12.882812 8.300781 -12.875 8.75 -12.875 C 9.207031 -12.875 9.769531 -12.875 10.4375 -12.875 C 10.75 -12.875 11.203125 -12.875 11.796875 -12.875 C 12.398438 -12.875 13.03125 -12.878906 13.6875 -12.890625 C 14.34375 -12.898438 14.910156 -12.910156 15.390625 -12.921875 C 15.867188 -12.941406 16.132812 -12.953125 16.1875 -12.953125 C 16.269531 -12.921875 16.3125 -12.878906 16.3125 -12.828125 C 16.3125 -12.585938 14.738281 -12.269531 11.59375 -11.875 C 9.800781 -11.632812 8.429688 -11.445312 7.484375 -11.3125 C 6.546875 -11.175781 6.035156 -11.097656 5.953125 -11.078125 C 5.578125 -10.753906 5.125 -10.207031 4.59375 -9.4375 C 4.0625 -8.664062 3.53125 -7.796875 3 -6.828125 C 2.46875 -5.867188 2.019531 -4.957031 1.65625 -4.09375 C 1.300781 -3.226562 1.125 -2.554688 1.125 -2.078125 C 1.125 -1.648438 1.28125 -1.296875 1.59375 -1.015625 C 1.914062 -0.734375 2.4375 -0.59375 3.15625 -0.59375 C 3.632812 -0.59375 4.207031 -0.695312 4.875 -0.90625 C 5.539062 -1.125 6.171875 -1.375 6.765625 -1.65625 C 7.367188 -1.9375 7.804688 -2.15625 8.078125 -2.3125 C 8.765625 -2.738281 9.523438 -3.304688 10.359375 -4.015625 C 11.203125 -4.722656 12.039062 -5.53125 12.875 -6.4375 C 13.238281 -6.8125 13.488281 -7 13.625 -7 C 13.707031 -7 13.75 -6.941406 13.75 -6.828125 C 13.75 -6.617188 13.550781 -6.273438 13.15625 -5.796875 C 12.507812 -5.023438 11.789062 -4.285156 11 -3.578125 C 10.21875 -2.867188 9.347656 -2.222656 8.390625 -1.640625 C 7.296875 -0.972656 6.25 -0.492188 5.25 -0.203125 C 4.25 0.0859375 3.328125 0.234375 2.484375 0.234375 Z M 2.484375 0.234375 "/></g></g></g><g fill="#e12c2c" fill-opacity="1"><g transform="translate(164.245617, 47.244795)"><g><path d="M 1.875 0.4375 C 0.675781 0.4375 0.078125 -0.320312 0.078125 -1.84375 C 0.078125 -2.425781 0.253906 -3.125 0.609375 -3.9375 C 0.972656 -4.75 1.488281 -5.609375 2.15625 -6.515625 C 2.15625 -6.515625 1.914062 -6.285156 1.4375 -5.828125 C 0.957031 -5.378906 0.410156 -4.804688 -0.203125 -4.109375 C -0.304688 -4.003906 -0.4375 -3.953125 -0.59375 -3.953125 C -0.707031 -3.953125 -0.765625 -4.019531 -0.765625 -4.15625 C -0.765625 -4.289062 -0.644531 -4.519531 -0.40625 -4.84375 L 5.109375 -11.3125 C 5.804688 -12.113281 6.566406 -12.515625 7.390625 -12.515625 C 8.003906 -12.515625 8.3125 -12.273438 8.3125 -11.796875 C 8.3125 -11.609375 8.234375 -11.429688 8.078125 -11.265625 C 7.566406 -10.785156 6.941406 -10.101562 6.203125 -9.21875 C 5.472656 -8.34375 4.757812 -7.398438 4.0625 -6.390625 C 3.375 -5.378906 2.796875 -4.414062 2.328125 -3.5 C 1.867188 -2.582031 1.640625 -1.84375 1.640625 -1.28125 C 1.640625 -0.800781 1.800781 -0.5625 2.125 -0.5625 C 2.300781 -0.5625 2.585938 -0.632812 2.984375 -0.78125 C 3.390625 -0.925781 3.925781 -1.226562 4.59375 -1.6875 C 5.257812 -2.15625 6.0625 -2.882812 7 -3.875 C 7.15625 -4.03125 7.578125 -4.507812 8.265625 -5.3125 C 8.960938 -6.113281 9.898438 -7.257812 11.078125 -8.75 C 13.148438 -11.332031 14.503906 -12.625 15.140625 -12.625 C 16.023438 -12.625 16.507812 -12.265625 16.59375 -11.546875 C 16.644531 -11.304688 16.082031 -10.519531 14.90625 -9.1875 C 13.382812 -7.351562 12.347656 -6.035156 11.796875 -5.234375 C 10.753906 -3.710938 10.234375 -2.523438 10.234375 -1.671875 C 10.234375 -1.085938 10.429688 -0.796875 10.828125 -0.796875 C 11.234375 -0.796875 11.75 -0.988281 12.375 -1.375 C 13 -1.757812 13.65625 -2.25 14.34375 -2.84375 C 15.039062 -3.445312 15.710938 -4.078125 16.359375 -4.734375 C 17.015625 -5.390625 17.582031 -6 18.0625 -6.5625 C 18.226562 -6.738281 18.390625 -6.828125 18.546875 -6.828125 C 18.703125 -6.828125 18.78125 -6.75 18.78125 -6.59375 C 18.78125 -6.539062 18.765625 -6.457031 18.734375 -6.34375 C 18.710938 -6.238281 18.632812 -6.125 18.5 -6 C 18.070312 -5.519531 17.523438 -4.925781 16.859375 -4.21875 C 16.203125 -3.507812 15.484375 -2.804688 14.703125 -2.109375 C 13.929688 -1.421875 13.1875 -0.847656 12.46875 -0.390625 C 11.75 0.0546875 11.132812 0.28125 10.625 0.28125 C 10.019531 0.28125 9.488281 0.113281 9.03125 -0.21875 C 8.582031 -0.550781 8.359375 -1.007812 8.359375 -1.59375 C 8.359375 -2.1875 8.445312 -2.78125 8.625 -3.375 C 8.8125 -3.976562 8.960938 -4.492188 9.078125 -4.921875 C 7.816406 -3.453125 6.710938 -2.332031 5.765625 -1.5625 C 4.828125 -0.789062 4.035156 -0.265625 3.390625 0.015625 C 2.753906 0.296875 2.25 0.4375 1.875 0.4375 Z M 1.875 0.4375 "/></g></g></g><g fill="#e12c2c" fill-opacity="1"><g transform="translate(181.23486, 47.244795)"><g><path d="M 8.15625 0.203125 C 7.007812 0.203125 6.222656 -0.09375 5.796875 -0.6875 C 5.367188 -1.289062 5.15625 -2.101562 5.15625 -3.125 C 5.15625 -4.238281 5.5 -5.566406 6.1875 -7.109375 C 6.457031 -7.722656 6.738281 -8.273438 7.03125 -8.765625 C 7.320312 -9.265625 7.628906 -9.726562 7.953125 -10.15625 C 7.847656 -10.125 7.753906 -10.109375 7.671875 -10.109375 C 7.585938 -10.109375 7.507812 -10.109375 7.4375 -10.109375 C 6.789062 -10.109375 6.253906 -10.5625 5.828125 -11.46875 L 2.875 -7.640625 C 1.300781 -5.585938 0.34375 -4.5625 0 -4.5625 C -0.132812 -4.5625 -0.203125 -4.613281 -0.203125 -4.71875 C -0.203125 -4.851562 -0.132812 -5.023438 0 -5.234375 C 0.0820312 -5.390625 0.242188 -5.601562 0.484375 -5.875 C 1.492188 -7.050781 2.425781 -8.210938 3.28125 -9.359375 C 4.132812 -10.503906 4.835938 -11.617188 5.390625 -12.703125 C 6.003906 -15.023438 6.78125 -16.1875 7.71875 -16.1875 C 8.332031 -16.1875 8.640625 -15.90625 8.640625 -15.34375 C 8.640625 -14.84375 8.304688 -14.175781 7.640625 -13.34375 C 6.992188 -12.519531 6.671875 -12.097656 6.671875 -12.078125 C 6.671875 -11.515625 7.082031 -11.234375 7.90625 -11.234375 C 8.394531 -11.234375 8.929688 -11.40625 9.515625 -11.75 L 10.546875 -12.390625 C 10.597656 -12.421875 10.679688 -12.4375 10.796875 -12.4375 C 11.109375 -12.4375 11.382812 -12.300781 11.625 -12.03125 C 11.863281 -11.757812 11.945312 -11.519531 11.875 -11.3125 L 9.109375 -7.828125 C 7.410156 -5.648438 6.5625 -3.894531 6.5625 -2.5625 C 6.5625 -1.363281 7.144531 -0.765625 8.3125 -0.765625 C 9.113281 -0.765625 9.972656 -1.003906 10.890625 -1.484375 C 11.804688 -1.960938 12.695312 -2.550781 13.5625 -3.25 C 14.4375 -3.957031 15.164062 -4.644531 15.75 -5.3125 L 16.703125 -6.4375 C 16.753906 -6.488281 16.820312 -6.550781 16.90625 -6.625 C 16.988281 -6.707031 17.054688 -6.75 17.109375 -6.75 C 17.296875 -6.75 17.390625 -6.65625 17.390625 -6.46875 C 17.390625 -6.414062 17.359375 -6.320312 17.296875 -6.1875 C 17.242188 -6.0625 17.15625 -5.914062 17.03125 -5.75 L 15.75 -4.3125 C 15.132812 -3.625 14.378906 -2.925781 13.484375 -2.21875 C 12.597656 -1.507812 11.679688 -0.925781 10.734375 -0.46875 C 9.785156 -0.0195312 8.925781 0.203125 8.15625 0.203125 Z M 8.15625 0.203125 "/></g></g></g><g fill="#e12c2c" fill-opacity="1"><g transform="translate(196.984889, 47.244795)"><g><path d="M 2.03125 0.515625 C 1.1875 0.515625 0.421875 0.242188 -0.265625 -0.296875 C -0.960938 -0.847656 -1.3125 -1.578125 -1.3125 -2.484375 C -1.3125 -4.367188 -0.15625 -6.523438 2.15625 -8.953125 C 4.53125 -11.398438 6.648438 -12.625 8.515625 -12.625 C 9.128906 -12.625 9.628906 -12.457031 10.015625 -12.125 C 10.398438 -11.789062 10.59375 -11.382812 10.59375 -10.90625 C 10.59375 -9.414062 9.40625 -7.953125 7.03125 -6.515625 C 4.925781 -5.234375 3.15625 -4.59375 1.71875 -4.59375 C 1.507812 -4.59375 1.320312 -4.617188 1.15625 -4.671875 C 0.757812 -3.953125 0.5625 -3.191406 0.5625 -2.390625 C 0.5625 -1.003906 1.210938 -0.3125 2.515625 -0.3125 C 3.847656 -0.3125 5.566406 -1.207031 7.671875 -3 C 9.296875 -4.300781 10.679688 -5.6875 11.828125 -7.15625 C 12.066406 -7.476562 12.28125 -7.640625 12.46875 -7.640625 C 12.625 -7.640625 12.703125 -7.554688 12.703125 -7.390625 C 12.703125 -7.234375 12.597656 -7.007812 12.390625 -6.71875 C 11.640625 -5.726562 10.835938 -4.820312 9.984375 -4 C 9.140625 -3.175781 8.222656 -2.414062 7.234375 -1.71875 C 5.179688 -0.226562 3.445312 0.515625 2.03125 0.515625 Z M 2.28125 -5.46875 C 3.289062 -5.46875 4.609375 -5.976562 6.234375 -7 C 6.765625 -7.363281 7.289062 -7.78125 7.8125 -8.25 C 8.332031 -8.71875 8.757812 -9.191406 9.09375 -9.671875 C 9.425781 -10.148438 9.59375 -10.578125 9.59375 -10.953125 C 9.59375 -11.296875 9.3125 -11.46875 8.75 -11.46875 C 7.945312 -11.46875 6.828125 -10.867188 5.390625 -9.671875 C 4.703125 -9.085938 4.035156 -8.445312 3.390625 -7.75 C 2.753906 -7.0625 2.210938 -6.332031 1.765625 -5.5625 C 1.921875 -5.5 2.09375 -5.46875 2.28125 -5.46875 Z M 2.28125 -5.46875 "/></g></g></g></svg>